<svg xmlns:dc="http://purl.org/dc/elements/1.1/" xmlns:cc="http://creativecommons.org/ns#" xmlns:rdf="http://www.w3.org/1999/02/22-rdf-syntax-ns#" xmlns:svg="http://www.w3.org/2000/svg" xmlns="http://www.w3.org/2000/svg" height="150" width="650" version="1.1"><style>.s0{fill:#72706f;}.s1{fill:#ff6905;}.s2{fill:#969594;}</style><metadata><rdf:RDF><cc:Work rdf:about=""><dc:format>image/svg+xml</dc:format><dc:type rdf:resource="http://purl.org/dc/dcmitype/StillImage"/></cc:Work></rdf:RDF></metadata><path d="m330.3 32-17.4 0 0 53.3c0 12.2-4.1 18.5-16.9 18.5-12.8 0-16.3-6.5-16.3-18.5l0-53.3-8.8 0c-2.5 0-4.6 1-6.3 2.8-1.7 1.8-2.6 4-2.6 6.5l0 45.9c0 23.6 10.6 31.2 33.6 31.2 9.3 0 21.6-0.9 28.3-8.2 5.5-6 6.4-15.2 6.4-22.9l0-55.2zM185.4 118.3l17.2 0 0-59.9 35.1 59.1 0.5 0.9 4.6 0 12.9 0 0-0.8 0-85.5-17.2 0 0 59-34.9-59-9.4 0" fill="#72706f"/><path d="m185.4 118.3 17.2 0 0-59.9 35.1 59.1 0.5 0.9 4.6 0 12.9 0 0-0.8 0-85.5-17.2 0 0 59-34.9-59-9.4 0c-2.4 0.2-4.5 1.1-6.3 2.8-1.7 1.7-2.6 3.8-2.6 6.3l0 77.2z" fill="#72706f"/><path d="m178.7 60.6-0.1-0.6c-1.3-8.4-5.1-15.3-11.8-20.6l0 0 0 0c-7.4-5.5-16.3-7.4-25.3-7.4-11.2 0-20.9 3.6-28.5 12-7.8 8.7-10.3 19.9-10.3 31.3 0 11.5 2.6 22.9 10.5 31.5 7.3 8.4 17.1 11.7 28 11.7 4.7 0 9.3-0.8 13.7-2.6l0 0 0 0c3.3-1.6 6-3.8 8.4-6.6l0.2-0.2 0 9.4 15.4 0 0-46.6-29.6 0 0 14.5 13.1 0 0 0.1c-0.9 4.6-2.8 8.7-6.3 11.9-3.6 3.1-8.1 4.4-12.8 4.4-6.5 0-12.2-2-16.3-7.1-4.6-5.7-6-13.2-6-20.4 0-7.2 1.4-14.6 5.8-20.4 4-5 9.3-7.1 15.6-7.1 4.2 0 8.7 0.7 12.2 3.2 1.8 1.4 3.4 3 4.6 5 1.7 3.1 4.3 4.8 7.8 4.8l12 0z" fill="#72706f"/><path d="m418.9 68 16.4 0c0.8-1.8 2.1-3 4-3.7 2-0.7 4.1-1 6.2-1 3.9 0 11 0.7 11 6 0 2.3 0 4.6 0 7l0 0.1-0.1 0c-6 0.1-12.1 0.1-18 0.8-4.5 0.5-9.2 1.5-13.1 4-0.7 0.5-1.4 1-2.1 1.5-4.5 3.8-6 9-6 14.8 0 13.4 9.2 20.7 22.1 20.7l0.3 0c3.4 0 6.7-0.3 10.1-0.6 2.4-0.3 4.8-0.8 7-1.6l0.1 0 0 2.2 15.7 0c0-16.6 0.2-33.3 0.2-49.9 0-5.8-2.3-10.5-7.1-13.8-5.7-3.9-14-4.7-20.8-4.7-6.7 0-13.8 1.2-19 5.7-3.9 3.3-6.2 7.4-6.9 12.5zm37.9 21.1 0 4c0 3-0.2 6.4-2.4 8.6-2.9 2.9-8.6 3.4-12.5 3.4-2.2 0-5.4-0.3-7-1.9-2.6-2.4-2.4-6.6-1.1-9.6 1.1-2.6 5.3-3.5 7.8-3.9 4.9-0.8 10.3-0.7 15.2-0.7l0.1 0zM594.1 117.5" fill="#ff6905"/><path d="m594.1 117.5c5.5 1.2 11 1.1 16.5-0.4 6.3-1.4 11.3-4.9 15.1-10.1 2-2.9 3.4-6.3 4.5-9.7 1.3-4.3 1.7-9.1 1.7-13.6 0-6.6-1.2-13.2-4.2-19.1-3-6.1-7.6-10.4-13.8-12.9-5.9-2.1-12.2-2.4-18.3-1.6-6.6 0.9-12.2 3.7-16.6 8.8-2.8 3.2-4.7 7-5.8 11.1-1.2 4.4-1.9 8.8-1.9 13.4 0 5.3 0.7 10.6 2.2 15.7 1.4 4.7 3.7 8.8 7.4 12 3.7 3.3 8.4 5.2 13.2 6.3zM588 84.6c-0.3-5.9 0.6-12.5 4.7-17.1 1.4-1.4 3.6-2.3 5.5-2.9 2.5-0.7 5-0.7 7.5 0.1 2.9 1 5 3.3 6.6 5.8 2.4 3.7 2.9 9.1 2.9 13.5-0.1 4.5-0.7 10.6-3.2 14.4-1.7 2.5-3.9 4.8-6.9 5.6-2.6 0.7-5.1 0.7-7.6-0.3-1.9-0.7-4-1.7-5.2-3.4-3.3-3.9-4-10.9-4.2-15.8z" fill="#ff6905"/><path d="m547.6 45.2 17.2 0 0-5.1c0-2.3-0.8-4.3-2.5-5.9-1.1-1.1-2.3-1.8-3.8-2.2l-11 0 0 13.2z" fill="#72706f"/><path d="m547.6 49.9 0 68.4 17.2 0 0-60c0-2.3-0.8-4.3-2.5-5.9-1.6-1.6-3.6-2.5-5.9-2.5l-8.8 0zM524.4 31.9l0 28.2-0.2-0.3" fill="#ff6905"/><path d="m524.4 31.9 0 28.2-0.2-0.3c-2-3.2-4.7-5.7-7.9-7.7-3.4-1.8-7.1-2.5-10.9-2.5-7.9 0-14.2 3.4-19 9.6-5.5 7.2-7.2 16.2-7.2 25 0 8.8 1.6 17.9 7.2 25 2.6 3.3 5.9 5.5 9.9 6.8 4.1 1.4 8.3 2.1 12.6 2.1 7.9 0 15.3-2.1 22-6.2 8.2-5 10.1-14.8 10.1-23.7l0-48.4c0-2.2-0.9-4.1-2.5-5.8-1.1-1.1-2.3-1.9-3.8-2.3l-10.4 0zm-3.7 37.6c2.9 4.1 3.7 9.3 3.7 14.2 0 5-0.7 10.9-3.5 15.2-2.6 3.6-6.1 5.2-10.5 5.2-4.4 0-8.1-1.6-10.7-5.2-3-4.2-3.7-10.1-3.7-15.2 0-4.8 0.8-10 3.7-13.9 2.5-3.5 5.9-5.2 10.2-5.2 4.4 0 8 1.6 10.7 5z" fill="#ff6905"/><path d="m343.9 118.3 17.4 0 0-34.4 18.7 0c9.6 0 13.4 4.9 13.4 14.2l0 0.2c0 2.8 0 5.6 0 8.5l0 0.1c0 1.5 0 3.1 0 4.6l0 6.8 17.4 0 0-23.3c0.2-4.8-0.9-9.8-3.9-13.6-1.8-2.3-4.3-4.1-7.1-5.1l-0.2-0.1 0.2-0.1c3.9-1.4 7.2-3.6 9.4-7.2 2.6-3.9 3.5-8.5 3.5-13.1 0-6.8-1.7-13.4-6.9-18.1-5.4-4.8-13.5-5.9-20.5-5.9l-32.5 0c-2.4 0-4.5 0.9-6.3 2.6-1.7 1.7-2.6 3.8-2.6 6.3l0 77.5zm48.1-68.9c2.5 2.1 3.2 5.3 3.2 8.5 0 3.2-0.7 6.4-3.2 8.5-2.7 2.2-6.6 2.8-10 2.8l-20.7 0 0-22.8 21.7 0c3.2 0 6.6 0.7 9 3z" fill="#ff6905"/><path d="m20.1 29.9c4.5-8 14-13.6 24.9-13.6 10.9 0 20.3 5.5 24.8 13.5l5.5-5.7C69.1 14.8 57.8 8.5 44.9 8.5c-13 0-24.3 6.3-30.5 15.8l5.6 5.6z" fill="#ff6905"/><path d="m44.9 22.1c-9.5 0-17.7 4.5-21.6 11l5.6 5.5c2.2-5.1 8.5-8.7 16-8.7 7.6 0 13.9 3.7 16 8.9l5.6-5.7C62.6 26.6 54.4 22.1 44.9 22.1Z" fill="#ff6905"/><path d="m106.1 141.7 0-9.8-3.5 0 0-0.9q0-0.5 0.3-0.9 0.4-0.4 0.9-0.4l8.3 0 0 2.1-3.5 0 0 9.8-2.5 0zM116.6 141.7l0-10.7" fill="#969594"/><path d="m116.6 141.7 0-10.7q0-0.5 0.3-0.9 0.4-0.4 0.9-0.4l1.2 0 0 4.4 4.9 0 0-4.4 2.5 0 0 11.9-2.5 0 0-5.3-4.9 0 0 5.3-2.5 0z" fill="#969594"/><path d="m130.9 141.7 0-10.7q0-0.5 0.3-0.9 0.4-0.4 0.9-0.4l7.4 0 0 2-6.2 0 0 2.6 4.6 0 0 0.8q0 0.5-0.4 0.9-0.3 0.3-0.9 0.3l-3.4 0 0 3.1 6.2 0 0 2.2-8.7 0z" fill="#969594"/><path d="m152 141.7 0-10.7q0-0.5 0.3-0.9 0.4-0.4 0.9-0.4l7.4 0 0 2-6.2 0 0 2.6 4.6 0 0 0.8q0 0.5-0.4 0.9-0.3 0.3-0.9 0.3l-3.4 0 0 5.3-2.4 0z" fill="#969594"/><path d="m165.1 141.7 0-10.7q0-0.5 0.3-0.9 0.4-0.4 0.9-0.4l4.5 0q1.9 0 2.9 0.8 1 0.9 1 2.5 0 1.1-0.5 1.8-0.4 0.7-1.3 1 0.8 0.3 1.1 0.8 0.3 0.5 0.4 1.8l0.1 1.4q0 0.2 0 0.5 0 0.2 0 0.5 0.1 0.6 0.4 0.8l-2.7 0q-0.2-0.3-0.2-0.7-0.1-0.6-0.1-0.8l0-1.3q-0.1-1-0.4-1.5-0.4-0.4-1.4-0.4l-2.6 0 0 4.6-2.5 0zm2.5-6.7 2.9 0q0.9 0 1.4-0.4 0.5-0.4 0.5-1.2 0-0.8-0.5-1.2-0.4-0.4-1.2-0.4l-3 0 0 3.2z" fill="#969594"/><path d="m179.4 141.7 0-10.7q0-0.5 0.3-0.9 0.4-0.4 0.9-0.4l7.4 0 0 2-6.2 0 0 2.6 4.6 0 0 0.8q0 0.5-0.4 0.9-0.3 0.3-0.9 0.3l-3.4 0 0 3.1 6.2 0 0 2.2-8.7 0z" fill="#969594"/><path d="m192.5 141.7 0-10.7q0-0.5 0.3-0.9 0.4-0.4 0.9-0.4l7.4 0 0 2-6.2 0 0 2.6 4.6 0 0 0.8q0 0.5-0.4 0.9-0.3 0.3-0.9 0.3l-3.4 0 0 3.1 6.2 0 0 2.2-8.7 0z" fill="#969594"/><path d="m217 136.5-0.6 0.5q-0.4 0.3-0.6 0.6-0.2 0.4-0.2 0.8 0 0.7 0.5 1.1 0.5 0.5 1.2 0.5 0.5 0 1-0.2 0.4-0.2 0.9-0.6l-2.2-2.7zm0.6-2.5 0.3-0.2q0.4-0.3 0.6-0.6 0.2-0.3 0.2-0.8 0-0.4-0.3-0.7-0.2-0.2-0.7-0.2-0.5 0-0.7 0.2-0.3 0.3-0.3 0.7 0 0.1 0.1 0.5 0 0.2 0.1 0.3 0.1 0.1 0.2 0.3l0.4 0.5zm-1.8 1.1-0.5-0.6q-0.4-0.5-0.5-0.9-0.2-0.5-0.2-0.9 0-1.3 0.9-2 0.8-0.8 2.3-0.8 1.4 0 2.2 0.7 0.8 0.7 0.8 1.9 0 0.9-0.5 1.6-0.5 0.7-1.5 1.3l1.7 2.1q0.2-0.4 0.4-0.9 0.1-0.7 0.2-1.1l1.2 0q0.6 0 0.7 0.3 0.1 0.3 0.1 0.6-0.1 0.5-0.3 1-0.4 0.9-1 1.7l2.2 2.6-2.8 0-0.8-1q-0.4 0.3-0.8 0.6-0.4 0.3-0.8 0.4-1.1 0.2-2.4 0.1-1.2-0.1-2.1-0.8-1-0.9-1-2.5 0-1.1 0.6-2 0.6-0.8 1.9-1.6z" fill="#969594"/><path d="m238.7 135.8q0 2 0.9 3.1 0.9 1.1 2.5 1.1 1.6 0 2.5-1.1 0.9-1.1 0.9-3.1 0-1.9-0.9-3.1-0.9-1.1-2.5-1.1-1.6 0-2.5 1.1-0.9 1.1-0.9 3.1zm-2.5 0q0-2.9 1.5-4.6 1.6-1.7 4.3-1.7 2.6 0 4.3 1.7 1.6 1.7 1.6 4.6 0 2.9-1.6 4.6-1.6 1.7-4.3 1.7-2.7 0-4.3-1.7-1.5-1.7-1.5-4.6z" fill="#969594"/><path d="m254.9 137.5 0 4.3-2.5 0 0-10.7q0-0.5 0.3-0.9 0.4-0.4 0.9-0.4l4.1 0q1.9 0 2.8 1 1 1 1 2.9 0 1.8-0.9 2.8-0.9 1-2.7 1l-3 0zm0-2.2 2.4 0q1 0 1.4-0.4 0.5-0.4 0.5-1.3 0-0.8-0.4-1.3-0.5-0.4-1.3-0.4l-2.5 0 0 3.4z" fill="#969594"/><path d="m266 141.7 0-10.7q0-0.5 0.3-0.9 0.4-0.4 0.9-0.4l7.4 0 0 2-6.2 0 0 2.6 4.6 0 0 0.8q0 0.5-0.4 0.9-0.3 0.3-0.9 0.3l-3.4 0 0 3.1 6.2 0 0 2.2-8.7 0z" fill="#969594"/><path d="m279.1 141.7 0-10.7q0-0.5 0.3-0.9 0.4-0.4 0.9-0.4l1.3 0 4.9 8.2 0-8.2 2.4 0 0 12-2.5 0-4.9-8.2 0 8.2-2.4 0z" fill="#969594"/><path d="m301.4 138 2.4 0q0.1 1 0.8 1.5 0.7 0.5 1.9 0.5 1.1 0 1.6-0.4 0.6-0.4 0.6-1.1 0-1.1-3.1-1.8l-0.1 0q0 0-0.3-0.1-1.8-0.4-2.4-0.8-0.7-0.4-1-1.1-0.3-0.6-0.3-1.6 0-1.7 1.2-2.7 1.2-0.9 3.4-0.9 2.1 0 3.3 1 1.2 1.1 1.2 2.8l-1.4 0q-0.8 0-1.1-0.7l0 0q-0.2-0.3-0.5-0.6-0.6-0.5-1.7-0.5-1 0-1.5 0.4-0.5 0.4-0.5 1.1 0 0.9 2 1.4 0.6 0.2 0.9 0.2 0.6 0.2 1.1 0.3 0.5 0.1 0.8 0.2 0.5 0.2 1 0.4 0.7 0.4 1.1 1.1 0.4 0.7 0.4 1.6 0 1.9-1.2 2.9-1.2 1-3.5 1-2.4 0-3.5-1-1.3-1-1.4-3z" fill="#969594"/><path d="m331.5 141.7 0-10.7q0-0.5 0.3-0.9 0.4-0.4 0.9-0.4l7.4 0 0 2-6.2 0 0 2.6 4.6 0 0 0.8q0 0.5-0.4 0.9-0.3 0.3-0.9 0.3l-3.4 0 0 5.3-2.4 0z" fill="#969594"/><path d="m348.1 141.7 0-9.8-3.5 0 0-0.9q0-0.5 0.3-0.9 0.4-0.4 0.9-0.4l8.3 0 0 2.1-3.5 0 0 9.8-2.5 0z" fill="#969594"/><path d="m362 141.7-3.4-11.9 2.5 0 2 8.4 1.7-8.4 2.6 0 1.7 8.4 1.8-7.5q0.2-0.9 1.2-0.9l1.5 0-3.4 11.9-2.4 0-1.8-9.2-1.9 9.2-2.3 0z" fill="#969594"/><path d="m383.6 129.8 1.9 0 4.3 11.9-2.6 0-0.8-2.5-4.6 0-0.8 2.5-2.6 0 4-11.1q0.3-0.8 1.2-0.8zm0.6 2.4-1.7 5.1 3.3 0-1.7-5.1z" fill="#969594"/><path d="m394.5 141.7 0-10.7q0-0.5 0.3-0.9 0.4-0.4 0.9-0.4l4.5 0q1.9 0 2.9 0.8 1 0.9 1 2.5 0 1.1-0.5 1.8-0.4 0.7-1.3 1 0.8 0.3 1.1 0.8 0.3 0.5 0.4 1.8l0.1 1.4q0 0.2 0 0.5 0 0.2 0 0.5 0.1 0.6 0.4 0.8l-2.7 0q-0.2-0.3-0.2-0.7-0.1-0.6-0.1-0.8l0-1.3q-0.1-1-0.4-1.5-0.4-0.4-1.4-0.4l-2.6 0 0 4.6-2.5 0zm2.5-6.7 2.9 0q0.9 0 1.4-0.4 0.5-0.4 0.5-1.2 0-0.8-0.5-1.2-0.4-0.4-1.2-0.4l-3 0 0 3.2z" fill="#969594"/><path d="m408.8 141.7 0-10.7q0-0.5 0.3-0.9 0.4-0.4 0.9-0.4l7.4 0 0 2-6.2 0 0 2.6 4.6 0 0 0.8q0 0.5-0.4 0.9-0.3 0.3-0.9 0.3l-3.4 0 0 3.1 6.2 0 0 2.2-8.7 0z" fill="#969594"/><path d="m429.9 141.7 0-10.7q0-0.5 0.3-0.9 0.4-0.4 0.9-0.4l4.5 0q1.9 0 2.9 0.8 1 0.9 1 2.5 0 1.1-0.5 1.8-0.4 0.7-1.3 1 0.8 0.3 1.1 0.8 0.3 0.5 0.4 1.8l0.1 1.4q0 0.2 0 0.5 0 0.2 0 0.5 0.1 0.6 0.4 0.8l-2.7 0q-0.2-0.3-0.2-0.7-0.1-0.6-0.1-0.8l0-1.3q-0.1-1-0.4-1.5-0.4-0.4-1.4-0.4l-2.6 0 0 4.6-2.5 0zm2.5-6.7 2.9 0q0.9 0 1.4-0.4 0.5-0.4 0.5-1.2 0-0.8-0.5-1.2-0.4-0.4-1.2-0.4l-3 0 0 3.2z" fill="#969594"/><path d="m449.3 129.8 1.9 0 4.3 11.9-2.6 0-0.8-2.5-4.6 0-0.8 2.5-2.6 0 4-11.1q0.3-0.8 1.2-0.8zm0.6 2.4-1.7 5.1 3.3 0-1.7-5.1z" fill="#969594"/><path d="m460.1 141.7 0-10.7q0-0.5 0.3-0.9 0.4-0.4 0.9-0.4l3.4 0q2.7 0 4.1 1.5 1.4 1.5 1.4 4.5 0 1.6-0.5 2.9-0.6 1.3-1.5 2-0.8 0.6-1.6 0.8-0.8 0.2-2.5 0.2l-4 0zm2.4-2.2 2 0q1.7 0 2.5-0.9 0.8-0.8 0.8-2.9 0-2-0.7-2.9-0.7-0.9-2.2-0.9l-2.3 0 0 7.7z" fill="#969594"/><path d="m474.7 141.7 0-10.7q0-0.5 0.3-0.9 0.4-0.4 0.9-0.4l1.2 0 0 11.9-2.5 0z" fill="#969594"/><path d="m483.6 135.8q0 2 0.9 3.1 0.9 1.1 2.5 1.1 1.6 0 2.5-1.1 0.9-1.1 0.9-3.1 0-1.9-0.9-3.1-0.9-1.1-2.5-1.1-1.6 0-2.5 1.1-0.9 1.1-0.9 3.1zm-2.5 0q0-2.9 1.5-4.6 1.6-1.7 4.3-1.7 2.6 0 4.3 1.7 1.6 1.7 1.6 4.6 0 2.9-1.6 4.6-1.6 1.7-4.3 1.7-2.7 0-4.3-1.7-1.5-1.7-1.5-4.6z" fill="#969594"/><path d="m505.2 141.7 0-10.7q0-0.5 0.3-0.9 0.4-0.4 0.9-0.4l7.4 0 0 2-6.2 0 0 2.6 4.6 0 0 0.8q0 0.5-0.4 0.9-0.3 0.3-0.9 0.3l-3.4 0 0 3.1 6.2 0 0 2.2-8.7 0z" fill="#969594"/><path d="m529 137.6q-0.2 2.1-1.6 3.3-1.4 1.1-3.7 1.1-2.7 0-4.1-1.6-1.4-1.6-1.4-4.6 0-3.1 1.5-4.7 1.5-1.6 4.3-1.6 2.3 0 3.6 1.1 1.3 1.1 1.5 3.1l-1.5 0q-0.8 0-1.2-0.7l0 0q-0.2-0.5-0.6-0.8-0.7-0.5-1.8-0.5-1.6 0-2.5 1-0.8 1-0.8 3.1 0 1.9 0.8 3 0.8 1.1 2.4 1.1 1.1 0 1.8-0.6 0.7-0.5 0.9-1.7l2.4 0z" fill="#969594"/><path d="m535.7 135.8q0 2 0.9 3.1 0.9 1.1 2.5 1.1 1.6 0 2.5-1.1 0.9-1.1 0.9-3.1 0-1.9-0.9-3.1-0.9-1.1-2.5-1.1-1.6 0-2.5 1.1-0.9 1.1-0.9 3.1zm-2.5 0q0-2.9 1.5-4.6 1.6-1.7 4.3-1.7 2.6 0 4.3 1.7 1.6 1.7 1.6 4.6 0 2.9-1.6 4.6-1.6 1.7-4.3 1.7-2.7 0-4.3-1.7-1.5-1.7-1.5-4.6z" fill="#969594"/><path d="m549.4 138 2.4 0q0.1 1 0.8 1.5 0.7 0.5 1.9 0.5 1.1 0 1.6-0.4 0.6-0.4 0.6-1.1 0-1.1-3.1-1.8l-0.1 0q0 0-0.3-0.1-1.8-0.4-2.4-0.8-0.7-0.4-1-1.1-0.3-0.6-0.3-1.6 0-1.7 1.2-2.7 1.2-0.9 3.4-0.9 2.1 0 3.3 1 1.2 1.1 1.2 2.8l-1.4 0q-0.8 0-1.1-0.7l0 0q-0.2-0.3-0.5-0.6-0.6-0.5-1.7-0.5-1 0-1.5 0.4-0.5 0.4-0.5 1.1 0 0.9 2 1.4 0.6 0.2 0.9 0.2 0.6 0.2 1.1 0.3 0.5 0.1 0.8 0.2 0.5 0.2 1 0.4 0.7 0.4 1.1 1.1 0.4 0.7 0.4 1.6 0 1.9-1.2 2.9-1.2 1-3.5 1-2.4 0-3.5-1-1.3-1-1.4-3z" fill="#969594"/><path d="m570.4 141.7-2.5 0 0-4.4-4.3-7.5 3 0 2.5 5.1 2-4.4q0.3-0.7 1.1-0.7l2 0-3.9 7.5 0 4.4z" fill="#969594"/><path d="m578.9 138 2.4 0q0.1 1 0.8 1.5 0.7 0.5 1.9 0.5 1.1 0 1.6-0.4 0.6-0.4 0.6-1.1 0-1.1-3.1-1.8l-0.1 0q0 0-0.3-0.1-1.8-0.4-2.4-0.8-0.7-0.4-1-1.1-0.3-0.6-0.3-1.6 0-1.7 1.2-2.7 1.2-0.9 3.4-0.9 2.1 0 3.3 1 1.2 1.1 1.2 2.8l-1.4 0q-0.8 0-1.1-0.7l0 0q-0.2-0.3-0.5-0.6-0.6-0.5-1.7-0.5-1 0-1.5 0.4-0.5 0.4-0.5 1.1 0 0.9 2 1.4 0.6 0.2 0.9 0.2 0.6 0.2 1.1 0.3 0.5 0.1 0.8 0.2 0.5 0.2 1 0.4 0.7 0.4 1.1 1.1 0.4 0.7 0.4 1.6 0 1.9-1.2 2.9-1.2 1-3.5 1-2.4 0-3.5-1-1.3-1-1.4-3z" fill="#969594"/><path d="m596.6 141.7 0-9.8-3.5 0 0-0.9q0-0.5 0.3-0.9 0.4-0.4 0.9-0.4l8.3 0 0 2.1-3.5 0 0 9.8-2.5 0z" fill="#969594"/><path d="m607 141.7 0-10.7q0-0.5 0.3-0.9 0.4-0.4 0.9-0.4l7.4 0 0 2-6.2 0 0 2.6 4.6 0 0 0.8q0 0.5-0.4 0.9-0.3 0.3-0.9 0.3l-3.4 0 0 3.1 6.2 0 0 2.2-8.7 0z" fill="#969594"/><path d="m620.1 141.7 0-10.7q0-0.5 0.3-0.9 0.4-0.4 0.9-0.4l2.4 0 2.4 9.1 2.4-9.1 3.6 0 0 12-2.3 0 0-9.6-2.4 9.6-2.5 0-2.5-9.6 0 9.6-2.3 0z" fill="#969594"/><path d="m84.9 67.1c3.5 3.5 5.3 7.7 5.3 12.7 0 4.9-1.7 9.1-5.2 12.5-3.5 3.5-7.6 5.2-12.5 5.2-3.4 0-6.4-0.8-9.2-2.5l-6.3 6.3c3.9 4.5 5.9 9.8 5.9 16.1 0 6.7-2.4 12.4-7.2 17.2-4.8 4.8-10.5 7.2-17.1 7.2-6.8 0-12.5-2.4-17.4-7.1C16.4 130 14 124.2 14 117.4c0-6.8 2.3-12.5 7-17.4 4.6-4.8 10.3-7.2 17.1-7.2 6 0 11.2 1.8 15.6 5.3l6-6c-3.4-3.4-5.1-7.6-5.1-12.4 0-4.9 1.7-9.1 5.1-12.6 0.3-0.3 0.6-0.6 1-0.9l-6.2-6.2c-2.7 2.5-5.9 3.8-9.5 3.8-3.9 0-7.2-1.4-9.9-4.1-2.8-2.7-4.1-6-4.1-9.9 0-3.9 1.3-7.2 4-9.9 2.7-2.8 5.9-4.1 9.8-4.1 4 0 7.3 1.4 10.1 4.1 2.8 2.7 4.1 6.1 4.1 10 0 2.7-0.7 5.1-2 7.3l6.9 6.9c2.5-1.4 5.3-2.1 8.4-2.1 5 0 9.3 1.7 12.8 5.2zM44.9 41.9c-2.2 0-4 0.8-5.5 2.3-1.5 1.6-2.2 3.4-2.2 5.6 0 2.2 0.7 4.1 2.2 5.6 1.5 1.5 3.3 2.2 5.6 2.2 2.1 0 3.9-0.8 5.4-2.3 1.5-1.5 2.2-3.4 2.2-5.5 0-1-0.2-2-0.6-3-0.4-1-0.9-1.8-1.6-2.5-0.7-0.7-1.5-1.3-2.5-1.8-1-0.4-1.9-0.7-2.9-0.7zm-6.4 61.7c-3.8 0-7 1.4-9.6 4.1-2.6 2.7-3.9 5.9-3.9 9.7 0 3.9 1.3 7.1 3.8 9.7 2.5 2.6 5.8 3.9 9.7 3.9 3.7 0 6.8-1.3 9.4-4 2.6-2.7 3.9-5.9 3.9-9.6 0-1.8-0.3-3.6-1-5.2-0.7-1.7-1.6-3.1-2.8-4.3-1.2-1.3-2.7-2.3-4.4-3.1-1.7-0.8-3.4-1.2-5.1-1.2zM72.5 69.7c-2.8 0-5.1 1-7 3-1.9 2-2.8 4.3-2.8 7.1 0 2.8 0.9 5.2 2.8 7.1 1.9 1.9 4.2 2.8 7.1 2.8 2.7 0 5-1 6.9-2.9 1.9-2 2.8-4.3 2.8-7 0-1.3-0.2-2.6-0.7-3.8-0.5-1.2-1.2-2.3-2.1-3.1-0.9-0.9-1.9-1.7-3.2-2.2-1.2-0.6-2.5-0.8-3.7-0.8z" fill="#ff6905"/><path d="m317.8 135.8q0 2 0.9 3.1 0.9 1.1 2.5 1.1 1.6 0 2.5-1.1 0.9-1.1 0.9-3.1 0-1.9-0.9-3.1-0.9-1.1-2.5-1.1-1.6 0-2.5 1.1-0.9 1.1-0.9 3.1zm-2.5 0q0-2.9 1.5-4.6 1.6-1.7 4.3-1.7 2.6 0 4.3 1.7 1.6 1.7 1.6 4.6 0 2.9-1.6 4.6-1.6 1.7-4.3 1.7-2.7 0-4.3-1.7-1.5-1.7-1.5-4.6z" fill="#969594"/></svg>